<svg width="27" height="26" viewBox="0 0 27 26" fill="none" xmlns="http://www.w3.org/2000/svg">
<path d="M2.40752 0.0673485C1.6093 0.224792 0.760801 0.742836 0.389975 1.30659C-0.0248469 1.93129 0.000293829 1.16946 0.000293829 12.9981C0.000293829 24.7099 -0.0185617 24.0497 0.352264 24.6439C0.729375 25.2381 1.65958 25.8019 2.5018 25.9441C2.73435 25.9847 5.19185 25.9999 10.6725 25.9999C19.3021 25.9999 18.9313 26.0101 19.6855 25.685C20.3957 25.3803 21.0054 24.7455 21.2191 24.1004C21.2819 23.9074 21.3071 23.4351 21.3071 22.2416C21.3071 20.7992 21.2945 20.6214 21.1876 20.4386C20.7728 19.6971 19.4404 19.6615 18.969 20.3777C18.8307 20.5808 18.8244 20.6519 18.793 22.1502C18.7616 23.6891 18.7616 23.7145 18.617 23.8262L18.4724 23.943L10.7417 23.9582C2.2881 23.9684 2.71549 23.9836 2.57722 23.684C2.53951 23.6027 2.51437 19.5955 2.51437 12.9981C2.51437 6.40067 2.53951 2.39346 2.57722 2.3122C2.71549 2.01255 2.2881 2.02778 10.7417 2.03794L18.4724 2.05318L18.617 2.16999C18.7616 2.28172 18.7616 2.30712 18.793 3.84601C18.8244 5.34427 18.8307 5.41537 18.969 5.61853C19.4404 6.33464 20.7728 6.29909 21.1876 5.55758C21.2945 5.37474 21.3071 5.19698 21.3071 3.75459C21.3071 2.11412 21.2819 1.93129 21.0368 1.46403C20.7917 1.01201 20.1946 0.519365 19.5975 0.270502C18.9124 -0.00883293 19.1638 -0.00375557 10.6223 0.0013237C4.5382 0.00640297 2.65893 0.0216389 2.40752 0.0673485Z" fill="#FF7221"/>
<path d="M18.7115 6.75114C18.435 6.82225 18.1145 7.04572 17.9762 7.25903C17.8379 7.47742 17.8128 7.86849 17.9133 8.1072C17.951 8.18846 18.9755 9.0417 20.3143 10.1133L22.6586 11.9773L16.5432 11.9824C11.1693 11.9824 10.4025 11.9925 10.1951 12.0585C9.17064 12.409 9.17064 13.5873 10.1951 13.9377C10.4025 14.0037 11.1693 14.0139 16.5432 14.0139L22.6586 14.019L20.3143 15.8829C18.9755 16.9545 17.951 17.8078 17.9133 17.8891C17.8128 18.1278 17.8379 18.5188 17.9762 18.7372C18.2904 19.2349 19.1389 19.4381 19.7046 19.1486C19.9749 19.0115 26.7126 13.6939 26.8634 13.4959C27.0457 13.2622 27.0457 12.734 26.8634 12.5004C26.7 12.2871 19.8869 6.91875 19.6543 6.82225C19.4343 6.72575 18.9441 6.6902 18.7115 6.75114Z" fill="#FF7221"/>
</svg>
