<?xml version="1.0" standalone="no"?>
<!DOCTYPE svg PUBLIC "-//W3C//DTD SVG 20010904//EN"
 "http://www.w3.org/TR/2001/REC-SVG-20010904/DTD/svg10.dtd">
<svg version="1.0" xmlns="http://www.w3.org/2000/svg"
 width="298.000000pt" height="169.000000pt" viewBox="0 0 298.000000 169.000000"
 preserveAspectRatio="xMidYMid meet">

<g transform="translate(0.000000,169.000000) scale(0.100000,-0.100000)"
fill="#000000" stroke="none">
<path d="M801 1356 c-48 -27 -66 -100 -35 -145 36 -51 35 -51 729 -51 697 0
682 -1 719 52 32 45 11 123 -39 146 -40 18 -1341 16 -1374 -2z"/>
<path d="M784 916 c-26 -26 -34 -42 -34 -71 0 -29 8 -45 34 -71 l34 -34 672 0
672 0 34 34 c47 47 47 95 0 142 l-34 34 -672 0 -672 0 -34 -34z"/>
<path d="M803 510 c-17 -10 -37 -28 -42 -39 -25 -46 -2 -118 44 -139 37 -17
1333 -17 1370 0 50 23 71 101 39 146 -37 53 -22 52 -726 52 -629 0 -654 -1
-685 -20z"/>
</g>
</svg>
